<?xml version="1.0" standalone="no"?>
<!DOCTYPE svg PUBLIC "-//W3C//DTD SVG 20010904//EN"
 "http://www.w3.org/TR/2001/REC-SVG-20010904/DTD/svg10.dtd">
<svg version="1.0" xmlns="http://www.w3.org/2000/svg"
 width="512.000000pt" height="512.000000pt" viewBox="0 0 512.000000 512.000000"
 preserveAspectRatio="xMidYMid meet">
<metadata>
Created by potrace 1.14, written by Peter Selinger 2001-2017
</metadata>
<g transform="translate(0.000000,512.000000) scale(0.100000,-0.100000)"
fill="#000000" stroke="none">
<path d="M2288 5105 c-18 -10 -476 -593 -584 -743 -1 -2 -195 22 -431 53 -235
31 -449 57 -475 57 -90 1 -153 -63 -151 -151 1 -25 27 -239 58 -474 31 -236
55 -430 53 -431 -561 -428 -730 -562 -744 -588 -11 -22 -15 -49 -12 -90 4 -51
9 -63 39 -92 19 -19 188 -152 377 -296 188 -144 342 -265 342 -268 0 -4 -27
-208 -59 -455 -48 -360 -57 -454 -49 -484 13 -48 65 -100 109 -108 21 -4 201
16 459 49 234 31 438 57 454 59 26 2 48 -23 305 -357 152 -198 288 -368 302
-379 15 -10 46 -21 70 -24 85 -9 102 8 389 382 143 187 265 339 271 337 6 -1
438 -250 959 -552 934 -542 948 -550 1001 -550 94 0 149 55 149 149 0 54 -7
66 -550 1002 -302 522 -551 953 -552 958 -2 6 150 128 337 271 374 287 391
304 382 389 -3 24 -14 55 -24 70 -11 14 -181 150 -379 302 -333 257 -359 279
-357 305 2 16 28 220 59 454 33 258 53 438 49 459 -8 44 -60 96 -108 109 -29
8 -124 -1 -484 -49 -246 -32 -451 -59 -455 -59 -3 0 -128 159 -277 353 -149
194 -282 364 -296 377 -32 30 -134 39 -177 15z m725 -1619 c43 -18 85 -68 93
-112 9 -48 -29 -120 -76 -145 -33 -18 -69 -19 -665 -19 -611 0 -631 1 -663 20
-98 60 -94 201 8 252 32 17 85 18 653 18 499 0 624 -3 650 -14z m200 -600 c43
-18 85 -68 93 -112 9 -48 -29 -120 -76 -145 -33 -18 -73 -19 -863 -19 -896 0
-853 -3 -906 54 -36 39 -41 119 -9 166 50 74 -2 70 911 70 668 0 824 -2 850
-14z m-300 -600 c43 -18 85 -68 93 -112 9 -48 -29 -120 -76 -145 -33 -18 -66
-19 -565 -19 -511 0 -531 1 -563 20 -98 60 -94 201 8 252 32 16 80 18 553 18
415 0 524 -3 550 -14z"/>
</g>
</svg>
